<?xml version="1.0" standalone="no"?>
<!DOCTYPE svg PUBLIC "-//W3C//DTD SVG 20010904//EN"
 "http://www.w3.org/TR/2001/REC-SVG-20010904/DTD/svg10.dtd">
<svg version="1.0" xmlns="http://www.w3.org/2000/svg"
 width="512.000000pt" height="512.000000pt" viewBox="0 0 512.000000 512.000000"
 preserveAspectRatio="xMidYMid meet">

<g transform="translate(0.000000,512.000000) scale(0.100000,-0.100000)"
fill="#000000" stroke="none">
<path d="M1505 4789 c-258 -92 -492 -179 -520 -191 -67 -31 -175 -139 -208
-208 -29 -59 -377 -1166 -377 -1197 0 -44 30 -59 414 -213 l386 -154 0 -1308
0 -1309 25 -24 24 -25 1311 0 1311 0 24 25 25 24 0 1308 0 1309 382 149 c220
86 393 159 405 172 13 12 23 34 23 48 0 42 -349 1145 -382 1207 -36 69 -125
156 -194 191 -27 13 -264 102 -527 196 l-478 171 -587 -1 -587 -1 -470 -169z
m1445 -3 c0 -7 -16 -45 -35 -83 -43 -86 -103 -144 -193 -186 -61 -29 -76 -32
-162 -32 -86 0 -101 3 -162 32 -90 42 -150 100 -193 186 -19 38 -35 76 -35 83
0 12 67 14 390 14 323 0 390 -2 390 -14z m258 -18 c28 -11 52 -21 52 -23 0
-16 -48 -151 -67 -190 -188 -375 -647 -506 -1007 -288 -137 83 -260 247 -307
410 -10 37 -18 67 -16 68 9 6 126 45 134 45 5 0 15 -23 22 -51 36 -137 141
-275 265 -344 75 -42 197 -75 276 -75 75 0 197 32 271 71 125 67 238 216 271
356 14 59 7 57 106 21z m-1478 -150 c88 -290 323 -514 625 -594 52 -13 105
-18 205 -18 167 0 234 15 388 91 93 45 127 69 198 136 124 117 198 234 244
385 12 40 25 72 29 72 28 0 663 -238 696 -260 43 -30 83 -81 109 -140 21 -46
330 -1040 325 -1044 -3 -2 -552 -219 -611 -242 -17 -6 -18 13 -18 306 l0 312
-76 124 c-42 68 -79 126 -83 128 -8 5 -131 -70 -131 -80 0 -3 29 -53 65 -111
l65 -104 0 -1630 0 -1629 -1200 0 -1200 0 0 1628 0 1627 70 105 c38 58 70 108
70 112 0 7 -114 88 -124 88 -3 0 -44 -57 -91 -127 l-85 -128 0 -314 c0 -246
-3 -312 -12 -308 -139 54 -604 241 -606 243 -5 3 319 1035 335 1069 20 39 90
112 128 133 26 13 638 239 657 241 3 1 16 -31 28 -71z"/>
</g>
</svg>
