<?xml version="1.0" standalone="no"?>
<!DOCTYPE svg PUBLIC "-//W3C//DTD SVG 20010904//EN"
 "http://www.w3.org/TR/2001/REC-SVG-20010904/DTD/svg10.dtd">
<svg version="1.0" xmlns="http://www.w3.org/2000/svg"
 width="980.000000pt" height="980.000000pt" viewBox="0 0 980.000000 980.000000"
 preserveAspectRatio="xMidYMid meet">

<g transform="translate(0.000000,980.000000) scale(0.100000,-0.100000)"
fill="#000000" stroke="none">
<path d="M3537 9280 l-11 -30 -172 0 c-144 0 -175 -3 -188 -16 -13 -13 -16
-44 -16 -180 0 -165 7 -204 35 -204 8 0 15 -4 15 -9 0 -4 -18 -84 -39 -177
-273 -1172 -440 -2537 -516 -4199 -28 -634 -46 -1295 -65 -2445 -6 -344 -15
-822 -21 -1063 -7 -333 -7 -442 2 -453 17 -20 1691 -21 1708 -1 7 9 15 121 21
303 75 2124 185 3313 425 4589 64 340 175 845 186 845 12 0 133 -560 203 -942
225 -1223 330 -2386 406 -4497 7 -178 15 -289 21 -298 17 -20 1691 -19 1708 1
9 11 9 122 2 458 -6 243 -15 718 -21 1053 -36 2159 -78 3083 -191 4215 -83
837 -227 1734 -389 2429 -22 96 -40 178 -40 182 0 5 7 9 15 9 28 0 35 39 35
204 0 136 -3 167 -16 180 -13 13 -44 16 -188 16 l-172 0 -11 30 -11 30 -99 0
c-102 0 -123 -7 -123 -42 0 -17 -18 -18 -293 -18 l-293 0 -11 30 -11 30 -99 0
c-102 0 -123 -7 -123 -42 0 -17 -18 -18 -300 -18 -282 0 -300 1 -300 18 0 35
-21 42 -123 42 l-99 0 -11 -30 -11 -30 -293 0 c-275 0 -293 1 -293 18 0 35
-21 42 -123 42 l-99 0 -11 -30z m153 -240 l0 -190 -40 0 -40 0 0 190 0 190 40
0 40 0 0 -190z m830 0 l0 -190 -40 0 -40 0 0 190 0 190 40 0 40 0 0 -190z
m840 0 l0 -190 -40 0 -40 0 0 190 0 190 40 0 40 0 0 -190z m830 0 l0 -190 -40
0 -40 0 0 190 0 190 40 0 40 0 0 -190z m-2660 5 l0 -126 -147 3 -148 3 -3 123
-3 122 151 0 150 0 0 -125z m830 0 l0 -125 -295 0 -295 0 0 125 0 125 295 0
295 0 0 -125z m838 3 l-3 -123 -297 -3 -298 -2 0 125 0 125 300 0 301 0 -3
-122z m832 -3 l0 -125 -295 0 -295 0 0 125 0 125 295 0 295 0 0 -125z m540 0
l0 -125 -150 0 -150 0 0 125 0 125 150 0 150 0 0 -125z m-3040 -219 c0 -45 23
-56 118 -56 48 0 93 4 100 9 7 4 16 21 21 37 l7 29 112 3 c132 3 123 22 87
-175 -104 -566 -284 -875 -592 -1014 -77 -36 -222 -69 -301 -69 l-53 0 5 33
c61 368 229 1181 252 1218 3 5 59 9 125 9 l119 0 0 -24z m694 15 c7 -11 -36
-241 -75 -396 -151 -607 -428 -955 -847 -1061 -98 -25 -293 -48 -303 -36 -4 4
-2 42 4 85 l10 77 52 0 c136 0 320 52 437 124 283 173 455 497 553 1046 14 80
28 151 30 158 5 14 130 17 139 3z m136 -15 c0 -45 23 -56 119 -56 95 0 118 9
123 50 l3 25 125 0 125 0 3 -1212 2 -1211 -40 -169 c-347 -1441 -518 -2915
-598 -5148 l-7 -200 -789 -3 -789 -2 7 312 c3 172 11 579 16 903 32 1896 72
2845 166 3865 37 409 129 1178 151 1268 5 20 11 22 77 22 206 0 461 82 612
196 308 232 490 588 609 1188 19 98 38 183 41 187 3 5 14 9 25 9 13 0 19 -7
19 -24z m748 -1041 l2 -1060 -31 -63 c-22 -45 -44 -73 -77 -97 -26 -19 -50
-35 -54 -35 -10 0 -10 2304 -1 2314 4 4 41 5 83 4 l75 -3 3 -1060z m376 1056
c3 -4 21 -89 41 -187 134 -681 368 -1078 746 -1269 134 -68 326 -115 468 -115
93 0 80 27 115 -230 176 -1283 245 -2474 286 -4935 5 -324 13 -728 16 -898 l7
-307 -789 2 -789 3 -7 180 c-90 2395 -252 3767 -629 5305 -5 19 -9 38 -9 42 0
4 23 19 50 33 70 36 126 95 163 173 l32 67 5 1070 c3 589 6 1058 8 1043 3 -38
28 -48 126 -48 93 0 116 11 116 56 0 17 6 24 19 24 11 0 22 -4 25 -9z m258
-146 c52 -289 113 -488 200 -659 176 -342 423 -505 803 -529 l39 -2 13 -75 c7
-41 9 -78 5 -81 -10 -10 -182 7 -268 25 -412 88 -690 401 -855 964 -42 146
-113 488 -103 503 3 6 36 9 72 7 l66 -3 28 -150z m289 121 c5 -16 14 -33 21
-37 7 -5 52 -9 100 -9 95 0 118 11 118 56 l0 25 123 -3 122 -3 23 -90 c55
-219 163 -755 227 -1132 l6 -33 -50 0 c-113 0 -282 49 -387 111 -72 43 -199
166 -251 244 -83 124 -160 307 -207 490 -35 138 -79 383 -72 401 5 12 26 14
113 12 l107 -3 7 -29z m-1823 -8056 c2 -36 1 -93 -3 -127 l-7 -63 -784 0 -784
0 0 78 c0 42 3 101 7 130 l6 53 781 -3 781 -3 3 -65z m2948 59 c4 -7 9 -65 12
-131 l5 -118 -785 0 -785 0 -7 46 c-3 26 -6 84 -6 129 l0 83 779 1 c588 1 781
-1 787 -10z"/>
</g>
</svg>
