<?xml version="1.0" standalone="no"?>
<!DOCTYPE svg PUBLIC "-//W3C//DTD SVG 20010904//EN"
 "http://www.w3.org/TR/2001/REC-SVG-20010904/DTD/svg10.dtd">
<svg version="1.0" xmlns="http://www.w3.org/2000/svg"
 width="512.000000pt" height="512.000000pt" viewBox="0 0 512.000000 512.000000"
 preserveAspectRatio="xMidYMid meet">

<g transform="translate(0.000000,512.000000) scale(0.100000,-0.100000)"
fill="#000000" stroke="none">
<path d="M3307 3749 c-56 -13 -79 -27 -224 -137 l-132 -99 -108 -6 c-129 -8
-240 -34 -337 -81 -39 -19 -179 -104 -311 -188 -316 -203 -370 -235 -511 -306
-313 -157 -530 -223 -1009 -307 -143 -26 -281 -52 -306 -59 -244 -72 -404
-328 -360 -575 24 -132 105 -260 213 -334 116 -80 498 -192 838 -246 292 -46
271 -46 2120 -46 l1755 0 41 22 c53 28 96 71 120 120 16 32 19 60 18 168 0
134 -16 221 -55 313 -15 35 -19 70 -19 180 -1 287 -32 535 -95 768 -42 152
-117 347 -151 392 -80 104 -233 128 -343 54 -60 -41 -88 -86 -122 -197 -41
-137 -66 -190 -114 -238 -63 -64 -134 -92 -230 -92 -133 0 -180 30 -340 212
l-93 106 39 116 c59 173 53 278 -20 370 -56 70 -176 112 -264 90z m122 -185
c43 -36 49 -80 22 -173 -13 -42 -24 -77 -26 -79 -2 -2 -33 17 -68 42 -36 26
-95 60 -132 77 -37 17 -64 34 -59 38 22 19 131 99 149 109 34 20 81 14 114
-14z m-361 -248 c61 -20 61 -21 10 -121 -57 -113 -157 -215 -269 -275 -68 -36
-1030 -360 -1146 -386 -93 -20 -216 -14 -311 16 -101 32 -101 33 -5 64 112 36
298 113 423 176 118 59 258 143 540 325 320 206 375 227 580 221 80 -2 144
-10 178 -20z m1566 -67 c26 -12 46 -48 89 -164 97 -257 147 -543 147 -841 0
-141 0 -144 -22 -149 -89 -19 -789 -60 -1179 -69 l-237 -5 -241 380 c-133 209
-244 385 -247 392 -2 7 25 33 60 60 98 72 197 199 246 313 17 38 22 43 37 35
23 -12 141 -135 274 -286 153 -174 255 -229 424 -227 194 1 364 110 443 282
14 30 38 97 53 150 38 128 79 163 153 129z m-1620 -877 c120 -189 216 -346
213 -349 -6 -5 -180 -22 -239 -23 l-38 0 -211 316 c-116 174 -208 319 -204
322 12 13 250 90 256 83 3 -3 104 -160 223 -349z m-450 -92 c110 -165 197
-302 195 -304 -2 -2 -65 -14 -139 -26 -74 -12 -142 -23 -151 -26 -11 -3 -63
72 -194 281 -97 157 -175 288 -173 291 8 7 231 82 248 83 9 0 97 -123 214
-299z m-1443 180 c168 -68 236 -88 339 -100 113 -13 216 0 360 46 62 19 113
34 115 32 9 -10 335 -537 335 -541 0 -14 -284 -32 -510 -32 -311 0 -536 26
-870 100 -278 61 -701 183 -708 203 -5 16 44 106 78 146 61 69 130 93 420 146
146 26 277 48 291 49 14 0 81 -22 150 -49z m-794 -519 c330 -102 708 -185
1008 -221 367 -45 776 -27 1235 54 348 62 491 73 1031 86 525 12 743 24 1230
66 l75 7 18 -59 c11 -36 20 -106 23 -180 l5 -121 -27 -21 -28 -22 -1703 0
c-1111 0 -1747 4 -1831 11 -280 23 -556 77 -818 160 -178 57 -205 69 -255 112
-55 47 -127 167 -101 167 5 0 67 -18 138 -39z"/>
<path d="M2682 3164 c-54 -37 -47 -114 12 -139 40 -17 82 -2 102 36 18 36 10
73 -23 99 -31 24 -61 25 -91 4z"/>
<path d="M2255 2985 c-27 -26 -31 -54 -13 -88 26 -50 77 -61 122 -26 20 16 26
29 26 58 0 74 -83 109 -135 56z"/>
</g>
</svg>
